<svg xmlns="http://www.w3.org/2000/svg" xmlns:xlink="http://www.w3.org/1999/xlink" width="100" height="100" viewBox="0 0 100 100"><g><g transform="translate(50 50) scale(0.69 0.69) rotate(0) translate(-50 -50)" style="fill:#000000"><svg fill="#000000" xmlns="http://www.w3.org/2000/svg" xmlns:xlink="http://www.w3.org/1999/xlink" version="1.1" x="0px" y="0px" viewBox="0 0 100 100" enable-background="new 0 0 100 100" xml:space="preserve"><g><path fill="none" d="M57.945,31.898c4.217,0,8.391-0.557,12.416-1.625c-4.857-11.1-13.801-20.081-25.342-24.958   c-8.927,0.884-17.086,4.404-23.697,9.767C30.464,25.674,43.844,31.898,57.945,31.898z"></path><path fill="none" d="M74.994,28.781c3.686-1.389,7.201-3.22,10.46-5.474C78.448,13.82,67.787,7.199,55.566,5.521   C64.221,11.247,70.961,19.32,74.994,28.781z"></path><path fill="none" d="M62.598,56.014c3.83,0,7.584,0.44,11.239,1.225c0.386-2.441,0.601-4.928,0.601-7.449   c0-5.212-0.828-10.251-2.354-14.99c-4.577,1.262-9.331,1.924-14.139,1.924c-15.471,0-30.152-6.813-40.204-18.41   C9.699,26.406,4.72,37.546,4.72,49.83c0,12.148,4.873,23.174,12.76,31.243C27.153,65.514,44.027,56.014,62.598,56.014z"></path><path fill="none" d="M88.104,27.339c-3.563,2.454-7.405,4.449-11.431,5.963c1.681,5.213,2.591,10.755,2.591,16.487   c0,2.939-0.25,5.839-0.727,8.679c4.611,1.445,9.02,3.5,13.12,6.189c1.637-4.644,2.538-9.632,2.538-14.827   C94.195,41.633,91.967,33.952,88.104,27.339z"></path><path fill="none" d="M55.327,94.17c15.194-2.002,28.013-11.645,34.438-24.943c-3.817-2.607-7.931-4.634-12.256-6.033   C74.163,75.857,66.203,86.943,55.327,94.17z"></path><path fill="none" d="M72.838,61.957c-3.331-0.715-6.75-1.117-10.24-1.117c-17.194,0-32.805,8.939-41.516,23.551   c6.605,5.433,14.789,9.012,23.75,9.938C58.702,88.464,69.044,76.338,72.838,61.957z"></path><path d="M91.979,24.403c0.017-0.012-0.182-0.312-0.182-0.312C83.086,9.818,67.366,0.268,49.457,0.268   c-1.212,0-2.409,0.059-3.599,0.146c-1.938,0.175-4.877,0.594-4.877,0.594C31.118,2.716,22.25,7.345,15.296,13.974l-0.643,0.458   c0.022,0.031,0.045,0.059,0.067,0.089C5.577,23.517-0.106,36.019-0.106,49.83c0,24.338,17.638,44.619,40.799,48.771   c0,0,3.155,0.481,4.975,0.633c1.252,0.095,2.512,0.158,3.789,0.158c27.33,0,49.564-22.232,49.564-49.562   C99.021,40.54,96.443,31.842,91.979,24.403z M85.454,23.307c-3.259,2.254-6.774,4.085-10.46,5.474   c-4.033-9.461-10.773-17.534-19.428-23.26C67.787,7.199,78.448,13.82,85.454,23.307z M45.019,5.315   c11.542,4.877,20.485,13.858,25.342,24.958c-4.025,1.068-8.199,1.625-12.416,1.625c-14.102,0-27.481-6.224-36.624-16.816   C27.933,9.719,36.092,6.199,45.019,5.315z M4.72,49.83c0-12.284,4.979-23.424,13.021-31.517   c10.052,11.597,24.733,18.41,40.204,18.41c4.808,0,9.562-0.662,14.139-1.924c1.525,4.739,2.354,9.778,2.354,14.99   c0,2.521-0.215,5.008-0.601,7.449c-3.655-0.784-7.409-1.225-11.239-1.225c-18.571,0-35.445,9.5-45.118,25.06   C9.593,73.004,4.72,61.979,4.72,49.83z M44.832,94.328c-8.961-0.926-17.145-4.505-23.75-9.938   C29.793,69.779,45.404,60.84,62.598,60.84c3.49,0,6.909,0.402,10.24,1.117C69.044,76.338,58.702,88.464,44.832,94.328z    M55.327,94.17c10.876-7.227,18.836-18.312,22.183-30.977c4.325,1.399,8.438,3.426,12.256,6.033   C83.34,82.525,70.521,92.168,55.327,94.17z M78.537,58.468c0.477-2.84,0.727-5.739,0.727-8.679c0-5.732-0.91-11.274-2.591-16.487   c4.025-1.514,7.867-3.509,11.431-5.963c3.863,6.613,6.092,14.294,6.092,22.491c0,5.195-0.901,10.184-2.538,14.827   C87.557,61.968,83.148,59.913,78.537,58.468z"></path></g></svg></g></g></svg>