<svg xmlns="http://www.w3.org/2000/svg" xmlns:xlink="http://www.w3.org/1999/xlink" width="100" height="100" viewBox="0 0 100 100"><g><g transform="translate(50 50) scale(0.69 0.69) rotate(0) translate(-50 -50)" style="fill:#000000"><svg fill="#000000" xmlns="http://www.w3.org/2000/svg" data-name="Camada 1" viewBox="0 0 100 100" x="0px" y="0px"><title>Hurricane</title><path d="M19.55946,92.08273a2.49524,2.49524,0,0,1-3.60592.1838A51.50985,51.50985,0,0,1,12.491,21.37713a41.70194,41.70194,0,0,1,58.81608-4.371,33.90017,33.90017,0,0,1,3.54934,47.75573,27.62769,27.62769,0,0,1-36.79008,4.544,2.47919,2.47919,0,0,1-.408-3.63563h0a2.50009,2.50009,0,0,1,3.34073-.38835A22.64424,22.64424,0,0,0,71.08534,61.512a28.91722,28.91722,0,0,0-3.02813-40.73483A36.72535,36.72535,0,0,0,16.262,24.627a46.53312,46.53312,0,0,0,3.1386,64.04751,2.4753,2.4753,0,0,1,.15883,3.40825Z"></path><path d="M55.91261,93.106A41.51682,41.51682,0,0,1,28.71878,83.01421,33.89927,33.89927,0,0,1,25.1704,35.25848a27.62272,27.62272,0,0,1,36.78912-4.544,2.47916,2.47916,0,0,1,.408,3.63556h0a2.50007,2.50007,0,0,1-3.34076.38832,22.63974,22.63974,0,0,0-30.0853,3.76993,28.88391,28.88391,0,0,0,3.02716,40.73483,36.772,36.772,0,0,0,51.79615-3.84983,46.59051,46.59051,0,0,0-3.12526-64.03377,2.48378,2.48378,0,0,1-.17271-3.42136h0A2.49677,2.49677,0,0,1,84.07654,7.758a51.57324,51.57324,0,0,1,3.45929,70.88512A41.63211,41.63211,0,0,1,55.91261,93.106Z"></path><circle cx="50" cy="50" r="4.25"></circle></svg></g></g></svg>