<svg xmlns="http://www.w3.org/2000/svg" xmlns:xlink="http://www.w3.org/1999/xlink" width="100" height="100" viewBox="0 0 100 100"><g><g transform="translate(50 50) scale(0.69 0.69) rotate(0) translate(-50 -50)" style="fill:#000000"><svg fill="#000000" xmlns="http://www.w3.org/2000/svg" data-name="Layer 1" viewBox="0 0 100 100" x="0px" y="0px"><title>02</title><path d="M39.82,91.89a3,3,0,0,0,3.55-1.15l31.11-46.8a3,3,0,0,0-2.84-4.64L57.73,40.89,58.61,11A3,3,0,0,0,53,9.38L25.44,55.59a3,3,0,0,0,2.92,4.52l13.54-1.54-4,30.13A3,3,0,0,0,39.82,91.89ZM33.7,53.46l18.57-31.1-.64,21.81A3,3,0,0,0,55,47.24L65.91,46,45.55,76.62l2.8-21.09a3,3,0,0,0-3-3.39l-.34,0Z"></path></svg></g></g></svg>