<svg xmlns="http://www.w3.org/2000/svg" xmlns:xlink="http://www.w3.org/1999/xlink" width="100" height="100" viewBox="0 0 100 100"><g><g transform="translate(50 50) scale(0.69 0.69) rotate(0) translate(-50 -50)" style="fill:#000000"><svg fill="#000000" xmlns="http://www.w3.org/2000/svg" xmlns:xlink="http://www.w3.org/1999/xlink" version="1.1" x="0px" y="0px" viewBox="0 0 100 100" enable-background="new 0 0 100 100" xml:space="preserve"><g><g><path d="M49.507,44.377c-0.244-0.244-0.676-0.244-0.92,0l-2.53,2.532c-0.254,0.254-0.254,0.666,0,0.919l3.26,3.26    c0.127,0.127,0.294,0.19,0.46,0.19s0.333-0.063,0.459-0.19l2.531-2.529c0.122-0.122,0.191-0.287,0.191-0.46    c0-0.172-0.068-0.337-0.19-0.459L49.507,44.377z M49.776,49.709l-2.341-2.341l1.611-1.612l2.342,2.342L49.776,49.709z"></path><path d="M95.46,12.994l-8.454-8.453c-0.254-0.254-0.666-0.254-0.92,0L65.57,25.057l-0.621,0.622l-10.57,10.571    c-0.121,0.122-0.19,0.287-0.19,0.459s0.069,0.338,0.19,0.459l0.649,0.649l-1.425,7.043l-3.824-3.824    c-0.254-0.254-0.666-0.254-0.92,0l-7.941,7.94c-0.121,0.122-0.19,0.287-0.19,0.459s0.069,0.338,0.19,0.459l3.749,3.75    l-6.849,1.386l-0.651-0.651c-0.254-0.254-0.666-0.254-0.92,0L4.54,86.087c-0.061,0.061-0.108,0.133-0.141,0.212    c-0.065,0.159-0.065,0.336,0,0.495c0.032,0.079,0.08,0.151,0.141,0.212l8.452,8.453c0.062,0.062,0.135,0.109,0.213,0.142    c0.079,0.032,0.163,0.049,0.247,0.049s0.168-0.017,0.247-0.049c0.078-0.032,0.151-0.08,0.213-0.142l10.569-10.568L35.05,74.322    l10.57-10.571c0.061-0.061,0.108-0.133,0.141-0.212c0.065-0.159,0.065-0.337,0-0.495c-0.032-0.079-0.08-0.151-0.141-0.212    l-0.461-0.46l1.386-6.849l5.065,5.065c0.127,0.127,0.294,0.19,0.46,0.19s0.333-0.063,0.46-0.19l1.162-1.162l2.04,2.039    c0.122,0.122,0.288,0.19,0.46,0.19c0.173,0,0.338-0.068,0.46-0.19l4.693-4.696c0.254-0.254,0.254-0.666,0-0.919l-2.038-2.038    l1.164-1.164c0.121-0.122,0.19-0.287,0.19-0.459s-0.069-0.338-0.19-0.459l-5.144-5.144l7.043-1.426l0.461,0.461    c0.127,0.127,0.294,0.19,0.46,0.19s0.333-0.063,0.46-0.19L95.46,13.913c0.121-0.122,0.19-0.287,0.19-0.459    S95.581,13.116,95.46,12.994z M45.189,55.673l-0.673-0.672l0.843-0.17L45.189,55.673z M44.63,58.436l-2.874-2.875l1.231-0.249    l1.893,1.892L44.63,58.436z M44.241,63.292l-9.651,9.651l-7.533-7.534l9.65-9.651L44.241,63.292z M16.488,75.979l9.649-9.649    l7.532,7.533l-9.648,9.649L16.488,75.979z M5.919,86.547l9.65-9.649l7.532,7.533l-9.649,9.649L5.919,86.547z M38.922,56.134    l1.305-0.264l4.094,4.096l-0.264,1.304L38.922,56.134z M56.192,60.086l-1.326-1.325l3.774-3.777l1.326,1.325L56.192,60.086z     M52.07,59.209l-5.251-5.251c-0.011-0.155-0.057-0.306-0.169-0.418s-0.263-0.159-0.419-0.169l-3.935-3.935l7.022-7.021    l4.191,4.191c0.011,0.014,0.014,0.032,0.026,0.045c0.016,0.016,0.037,0.022,0.055,0.036l5.501,5.501L52.07,59.209z M94.081,13.454    l-9.65,9.649l-7.534-7.532l9.649-9.651L94.081,13.454z M75.978,16.491l7.534,7.532l-9.651,9.651l-7.532-7.536l1.192-1.192    L75.978,16.491z M54.999,44.516l0.672,0.673l-0.843,0.17L54.999,44.516z M55.308,42.986l0.249-1.231l2.876,2.875l-1.232,0.25    L55.308,42.986z M59.962,44.32l-4.096-4.095l0.265-1.306l5.137,5.137L59.962,44.32z M55.758,36.708l9.651-9.651l7.532,7.536    l-9.649,9.649L55.758,36.708z"></path></g></g><g display="none"><g display="inline"><g><g><path d="M49.998,60.631c-5.862,0-10.631-4.769-10.631-10.631c0-5.864,4.769-10.634,10.631-10.634S60.629,44.136,60.629,50      C60.629,55.862,55.86,60.631,49.998,60.631z M49.998,40.566c-5.2,0-9.432,4.232-9.432,9.434c0,5.2,4.231,9.431,9.432,9.431      S59.43,55.2,59.43,50C59.43,44.798,55.198,40.566,49.998,40.566z"></path></g></g><g><path d="M49.822,36.508c-1.553-1.555-1.553-4.085,0-5.641c0.524-0.524,0.813-1.224,0.813-1.971s-0.288-1.447-0.812-1.971     l0.848-0.849c0.751,0.75,1.164,1.751,1.164,2.819s-0.413,2.069-1.164,2.819c-1.085,1.087-1.085,2.857,0.001,3.945L49.822,36.508z     "></path><path d="M49.324,73.923c-1.555-1.556-1.555-4.087,0.001-5.642c0.523-0.523,0.812-1.223,0.812-1.97     c0-0.748-0.288-1.448-0.813-1.972l0.85-0.849c0.75,0.751,1.163,1.752,1.163,2.82c0,1.067-0.413,2.068-1.164,2.818     c-1.087,1.087-1.087,2.856,0.001,3.944L49.324,73.923z"></path></g><g><path d="M71.103,51.838c-1.021,0-2.042-0.388-2.819-1.165c-1.049-1.049-2.896-1.049-3.944,0l-0.848-0.849     c0.751-0.751,1.752-1.165,2.82-1.165s2.069,0.414,2.82,1.165c1.086,1.087,2.856,1.085,3.944,0l0.848,0.85     C73.146,51.45,72.124,51.838,71.103,51.838z"></path><path d="M33.687,51.339c-1.021,0-2.042-0.388-2.819-1.164c-1.049-1.05-2.896-1.049-3.942,0l-0.85-0.849     c0.751-0.751,1.752-1.165,2.82-1.165s2.069,0.414,2.82,1.165c1.087,1.086,2.856,1.085,3.943,0l0.848,0.85     C35.729,50.951,34.708,51.339,33.687,51.339z"></path></g><g><path d="M40.334,40.584c-2.199,0-3.987-1.79-3.987-3.989c0-1.538-1.251-2.79-2.789-2.79v-1.2c2.199,0,3.988,1.79,3.988,3.99     c0,1.538,1.251,2.789,2.788,2.789V40.584z"></path><path d="M66.438,67.393c-2.199,0-3.988-1.79-3.988-3.989c0-1.538-1.251-2.789-2.788-2.789v-1.2c2.199,0,3.987,1.79,3.987,3.989     c0,1.538,1.251,2.789,2.789,2.789V67.393z"></path></g><g><path d="M60.614,40.334h-1.199c0-2.199,1.789-3.989,3.988-3.989c1.538,0,2.789-1.25,2.789-2.786h1.199     c0,2.198-1.789,3.986-3.988,3.986C61.865,37.545,60.614,38.796,60.614,40.334z"></path><path d="M32.606,66.441c-0.001-1.063,0.415-2.063,1.17-2.819s1.756-1.171,2.817-1.171c1.537,0,2.788-1.251,2.789-2.789     l1.199,0.001c-0.001,2.199-1.79,3.988-3.988,3.988c-0.741,0-1.44,0.291-1.969,0.819c-0.528,0.529-0.819,1.229-0.819,1.97     L32.606,66.441z"></path></g></g></g></svg></g></g></svg>