<?xml version="1.0" encoding="utf-8"?>
<!-- Generator: Adobe Illustrator 23.0.3, SVG Export Plug-In . SVG Version: 6.00 Build 0)  -->
<svg version="1.1" id="Layer_1" xmlns="http://www.w3.org/2000/svg" xmlns:xlink="http://www.w3.org/1999/xlink" x="0px" y="0px"
	 viewBox="0 0 42.4 40.1" style="enable-background:new 0 0 42.4 40.1;" xml:space="preserve">
<style type="text/css">
	.st0{fill:#FFFFFF;}
</style>
<g id="aerospace-icon-only">
	<path id="Shape" class="st0" d="M19.5,38c-9.3,0-16.9-7.6-16.9-16.9c0-9.3,7.6-16.9,16.9-16.9c2.5,0,4.8,0.5,7,1.5L5,27.3h7.2
		l5.2-5.2l8.9-8.9v8.9h-8.6v5.2h13.8V9.4c3.1,3.1,4.8,7.4,4.8,11.8C36.3,30.5,28.8,38,19.5,38 M31.5,6.5V0.7L28,4.2
		c-2.7-1.3-5.6-2-8.6-2c-10.5,0-19,8.5-19,19s8.5,19,19,19s19-8.5,19-19C38.5,15.3,35.8,10,31.5,6.5"/>
</g>
</svg>
