<?xml version="1.0" encoding="utf-8"?>
<!-- Generator: Adobe Illustrator 23.0.3, SVG Export Plug-In . SVG Version: 6.00 Build 0)  -->
<svg version="1.1" id="Layer_1" xmlns="http://www.w3.org/2000/svg" xmlns:xlink="http://www.w3.org/1999/xlink" x="0px" y="0px"
	 viewBox="0 0 100 100" style="enable-background:new 0 0 100 100;" xml:space="preserve">
<style type="text/css">
	.st0{fill:none;}
	.st1{fill:#FFFFFF;}
</style>
<path class="st0" d="M55.5,37.5c2.9,0,5.8-0.4,8.6-1.1c-3.4-7.7-9.5-13.9-17.5-17.2c-6.2,0.6-11.8,3-16.4,6.7
	C36.5,33.2,45.8,37.5,55.5,37.5z"/>
<path class="st0" d="M67.2,35.4c2.5-1,5-2.2,7.2-3.8C69.6,25,62.3,20.5,53.8,19.3C59.8,23.3,64.5,28.8,67.2,35.4z"/>
<path class="st0" d="M58.7,54.1c2.6,0,5.2,0.3,7.8,0.8c0.3-1.7,0.4-3.4,0.4-5.1c0-3.6-0.6-7.1-1.6-10.3c-3.2,0.9-6.4,1.3-9.8,1.3
	c-10.7,0-20.8-4.7-27.7-12.7c-5.5,5.6-9,13.3-9,21.7c0,8.4,3.4,16,8.8,21.6C34.2,60.7,45.9,54.1,58.7,54.1z"/>
<path class="st0" d="M76.3,34.4c-2.5,1.7-5.1,3.1-7.9,4.1c1.2,3.6,1.8,7.4,1.8,11.4c0,2-0.2,4-0.5,6c3.2,1,6.2,2.4,9.1,4.3
	c1.1-3.2,1.8-6.6,1.8-10.2C80.5,44.2,79,38.9,76.3,34.4z"/>
<path class="st0" d="M53.7,80.5c10.5-1.4,19.3-8,23.8-17.2c-2.6-1.8-5.5-3.2-8.5-4.2C66.7,67.8,61.2,75.5,53.7,80.5z"/>
<path class="st0" d="M65.8,58.3c-2.3-0.5-4.7-0.8-7.1-0.8c-11.9,0-22.6,6.2-28.6,16.3c4.6,3.7,10.2,6.2,16.4,6.9
	C56,76.5,63.1,68.2,65.8,58.3z"/>
<path class="st1" d="M79,32.3c0,0-0.1-0.2-0.1-0.2c-6-9.8-16.9-16.4-29.2-16.4c-0.8,0-1.7,0-2.5,0.1c-1.3,0.1-3.4,0.4-3.4,0.4
	c-6.8,1.2-12.9,4.4-17.7,8.9l-0.4,0.3c0,0,0,0,0,0.1c-6.3,6.2-10.2,14.8-10.2,24.4c0,16.8,12.2,30.8,28.2,33.7c0,0,2.2,0.3,3.4,0.4
	c0.9,0.1,1.7,0.1,2.6,0.1c18.9,0,34.2-15.3,34.2-34.2C83.8,43.5,82,37.5,79,32.3z M74.5,31.6c-2.2,1.6-4.7,2.8-7.2,3.8
	c-2.8-6.5-7.4-12.1-13.4-16C62.3,20.5,69.6,25,74.5,31.6z M46.6,19.2c8,3.4,14.1,9.6,17.5,17.2c-2.8,0.7-5.7,1.1-8.6,1.1
	c-9.7,0-19-4.3-25.3-11.6C34.8,22.2,40.4,19.8,46.6,19.2z M18.8,49.9c0-8.5,3.4-16.2,9-21.7c6.9,8,17.1,12.7,27.7,12.7
	c3.3,0,6.6-0.5,9.8-1.3c1.1,3.3,1.6,6.7,1.6,10.3c0,1.7-0.1,3.5-0.4,5.1c-2.5-0.5-5.1-0.8-7.8-0.8c-12.8,0-24.5,6.6-31.1,17.3
	C22.1,65.9,18.8,58.3,18.8,49.9z M46.4,80.6c-6.2-0.6-11.8-3.1-16.4-6.9c6-10.1,16.8-16.2,28.6-16.2c2.4,0,4.8,0.3,7.1,0.8
	C63.1,68.2,56,76.5,46.4,80.6z M53.7,80.5c7.5-5,13-12.6,15.3-21.4c3,1,5.8,2.4,8.5,4.2C73,72.4,64.2,79.1,53.7,80.5z M69.7,55.8
	c0.3-2,0.5-4,0.5-6c0-4-0.6-7.8-1.8-11.4c2.8-1,5.4-2.4,7.9-4.1c2.7,4.6,4.2,9.9,4.2,15.5c0,3.6-0.6,7-1.8,10.2
	C75.9,58.3,72.9,56.8,69.7,55.8z"/>
</svg>
