<?xml version="1.0" encoding="utf-8"?>
<!-- Generator: Adobe Illustrator 23.0.3, SVG Export Plug-In . SVG Version: 6.00 Build 0)  -->
<svg version="1.1" id="Layer_1" xmlns="http://www.w3.org/2000/svg" xmlns:xlink="http://www.w3.org/1999/xlink" x="0px" y="0px"
	 viewBox="0 0 100 100" style="enable-background:new 0 0 100 100;" xml:space="preserve">
<style type="text/css">
	.st0{fill:#666666;}
</style>
<g>
	<g transform="translate(50 50) scale(0.69 0.69) rotate(0) translate(-50 -50)">
		<title>meteorite-debris-space-burn-astronomy-asteroid</title>
		<path class="st0" d="M17.2,52.7l-1.4,5.6l-12,7.5c-0.7,0.4-0.9,1.2-0.6,1.9l4.7,10.9c0.1,0.3,0.4,0.6,0.7,0.7l10.8,6.1l9.2,9.2
			c0.3,0.3,0.6,0.4,1,0.5l18.7,1.6c0,0,0.1,0,0.1,0c0.3,0,0.7-0.1,0.9-0.3l12.5-9.4c0.3-0.3,0.6-0.7,0.6-1.1L64,70.5
			c0-0.4-0.1-0.8-0.3-1.1l-9.4-12.5c-0.2-0.3-0.5-0.5-0.8-0.6l-21.9-6.2C31.5,50,31.2,50,31,50l-12.5,1.6
			C17.9,51.7,17.4,52.1,17.2,52.7z M20,54.5l11.1-1.4l21.1,6l8.7,11.6l-1.4,14.3L48,93.7l-17.6-1.5l-9-9c-0.1-0.1-0.2-0.2-0.3-0.3
			l-10.5-6l-4-9.2L18,60.7c0.3-0.2,0.6-0.5,0.7-0.9L20,54.5z"/>
		<path class="st0" d="M46.1,76.6c4.8,0,8.6-2.7,8.6-6.2s-3.8-6.2-8.6-6.2s-8.6,2.7-8.6,6.2S41.3,76.6,46.1,76.6z M46.1,67.2
			c3.2,0,5.5,1.6,5.5,3.1s-2.2,3.1-5.5,3.1s-5.5-1.6-5.5-3.1S42.9,67.2,46.1,67.2z"/>
		<path class="st0" d="M23.4,78.1c4.5,0,7.8-2,7.8-4.7h-3.1c0,0.4-1.7,1.6-4.7,1.6s-4.7-1.2-4.7-1.6h-3.1
			C15.6,76.1,19,78.1,23.4,78.1z"/>
		<path class="st0" d="M37.5,87.5c0-0.4,1.7-1.6,4.7-1.6s4.7,1.2,4.7,1.6H50c0-2.7-3.4-4.7-7.8-4.7s-7.8,2-7.8,4.7H37.5z"/>
		<path class="st0" d="M27.3,67.2c4,0,7-2,7-4.7s-3-4.7-7-4.7s-7,2-7,4.7S23.3,67.2,27.3,67.2z M27.3,60.9c2.5,0,3.9,1.1,3.9,1.6
			s-1.4,1.6-3.9,1.6s-3.9-1.1-3.9-1.6S24.8,60.9,27.3,60.9z"/>
		<rect x="39.1" y="59.4" class="st0" width="3.1" height="3.1"/>
		
			<rect x="42.7" y="36.7" transform="matrix(0.7071 -0.7071 0.7071 0.7071 -10.3642 51.5391)" class="st0" width="28.7" height="3.1"/>
		
			<rect x="55.1" y="34.4" transform="matrix(0.7071 -0.7071 0.7071 0.7071 -3.4452 63.5585)" class="st0" width="39.8" height="3.1"/>
		
			<rect x="13.2" y="28.1" transform="matrix(0.7071 -0.7071 0.7071 0.7071 -10.0089 35.2118)" class="st0" width="48.6" height="3.1"/>
		<rect x="57.2" y="6.3" transform="matrix(0.7071 -0.7071 0.7071 0.7071 11.8655 44.2725)" class="st0" width="4.4" height="3.1"/>
		
			<rect x="35.1" y="33.2" transform="matrix(0.7071 -0.7071 0.7071 0.7071 -11.8825 40.8429)" class="st0" width="16.6" height="3.1"/>
		
			<rect x="65.6" y="61.7" transform="matrix(0.7071 -0.7071 0.7071 0.7071 -23.9247 68.8057)" class="st0" width="11" height="3.1"/>
		
			<rect x="75.9" y="49.2" transform="matrix(0.7071 -0.7071 0.7071 0.7071 -11.4239 73.9831)" class="st0" width="15.5" height="3.1"/>
		
			<rect x="91.5" y="39.1" transform="matrix(0.7071 -0.7071 0.7071 0.7071 -1.2678 78.1904)" class="st0" width="4.4" height="3.1"/>
		
			<rect x="69.9" y="17.2" transform="matrix(0.7071 -0.7071 0.7071 0.7071 9.1656 59.6289)" class="st0" width="13.3" height="3.1"/>
		
			<rect x="91.5" y="15.6" transform="matrix(0.7071 -0.7071 0.7071 0.7071 15.3054 71.3248)" class="st0" width="4.4" height="3.1"/>
		
			<rect x="50.9" y="23.4" transform="matrix(0.7071 -0.7071 0.7071 0.7071 -2.1177 44.8878)" class="st0" width="4.4" height="3.1"/>
		<rect x="57.2" y="17.2" transform="matrix(0.7071 -0.7071 0.7071 0.7071 4.1322 47.4767)" class="st0" width="4.4" height="3.1"/>
		<rect x="83.1" y="6.2" transform="matrix(0.7071 -0.7071 0.7071 0.7071 20.1047 64.1596)" class="st0" width="8.8" height="3.1"/>
	</g>
</g>
</svg>
