<?xml version="1.0" encoding="utf-8"?>
<!-- Generator: Adobe Illustrator 23.0.3, SVG Export Plug-In . SVG Version: 6.00 Build 0)  -->
<svg version="1.1" id="Layer_1" xmlns="http://www.w3.org/2000/svg" xmlns:xlink="http://www.w3.org/1999/xlink" x="0px" y="0px"
	 viewBox="0 0 100 100" style="enable-background:new 0 0 100 100;" xml:space="preserve">
<style type="text/css">
	.st0{fill:#FFFFFF;stroke:#666666;stroke-width:0.75;stroke-miterlimit:10;}
</style>
<g>
	<g transform="translate(50 50) scale(0.69 0.69) rotate(0) translate(-50 -50)">
		<g>
			<path class="st0" d="M87.9,82.2l-3-1.6C91.4,72.9,95,63.1,95,53c0-16.6-9.7-31.8-24.7-38.8l1.5-3.1c0.1-0.2,0.1-0.4,0-0.6
				s-0.2-0.3-0.4-0.4c-6.1-2.7-12.6-4.1-19.3-4.1C26.1,5.9,5,27,5,53c0,2.3,0.2,4.7,0.6,7.2c0.1,0.3,0.3,0.6,0.6,0.6
				c5.6,0.9,9.6,5.6,9.6,11.2c0,0.7-0.1,1.5-0.3,2.2L12,73.5c-0.2,0-0.4,0-0.6,0.1c-0.2,0.1-0.3,0.3-0.3,0.5l-0.9,4.5
				c-0.1,0.4,0.2,0.8,0.6,0.9l47.9,9.4l-0.1,0.7c-0.1,0.4,0.2,0.8,0.6,0.9l16,3.2c0,0,0.1,0,0.1,0c0.1,0,0.3,0,0.4-0.1
				c0.2-0.1,0.3-0.3,0.3-0.5l0.1-0.7l9,1.8c0,0,0.1,0,0.1,0c0.4,0,0.7-0.2,0.7-0.6L87,89c0-0.2,0-0.4-0.1-0.6
				c-0.1-0.2-0.3-0.3-0.5-0.3l-2.5-0.5c1.5-1.4,2.9-2.8,4.2-4.3c0.1-0.2,0.2-0.4,0.2-0.6C88.2,82.5,88.1,82.3,87.9,82.2z M93.5,53
				c0,9.9-3.5,19.4-10,26.9l-2.9-1.5L55.1,64.9c0.5-1.1,0.7-2.3,0.7-3.5c0-3.3-1.7-6.2-4.5-7.8l18.3-38.1
				C84.1,22.3,93.5,36.9,93.5,53z M59,87.4l-47.1-9.3l0.6-3l3.6,0.7c0,0,0,0,0,0l43.5,8.6l-0.2,1.1L59,87.4z M60.2,89.1l0.7-3.4
				l0.3-1.8l0,0l0.1-0.7l14.6,2.9l-0.1,0.7l-0.9,4.5c0,0,0,0,0,0L74.7,92L60.2,89.1z M84.8,92.5l-8.3-1.6l0.1-0.4l0.5-2.6l5.1,1
				c0,0,0,0,0,0l3.2,0.6L84.8,92.5z M82.1,87.3l-4.7-0.9l0.1-0.7c0.1-0.4-0.2-0.8-0.6-0.9l-16-3.2c-0.1,0-0.2,0-0.3,0
				c-0.1,0-0.2,0-0.2,0.1c-0.1,0-0.1,0.1-0.2,0.2C60,82,60,82.1,60,82.2l-0.1,0.7l-42.8-8.4c0.2-0.9,0.3-1.7,0.3-2.5
				c0-6.2-4.3-11.4-10.3-12.6C6.7,57.2,6.5,55,6.5,53C6.5,27.8,27,7.4,52.1,7.4c6.2,0,12.3,1.2,18,3.7l-1.5,3.1c0,0,0,0,0,0
				l-19,39.4c0,0,0,0,0,0l0,0c-0.2,0.4,0,0.8,0.3,1c2.7,1.3,4.3,3.9,4.3,6.8c0,1.2-0.3,2.4-0.9,3.5c-0.2,0.4-0.1,0.8,0.3,1
				l32.6,17.1C85,84.6,83.6,86,82.1,87.3z"/>
			<path class="st0" d="M46.7,55.6c-2.2,0-4.2,1.2-5.2,3.2h-4.6c-0.4,0-0.8,0.3-0.8,0.8v4.6c0,0.4,0.3,0.8,0.8,0.8H42
				c1.1,1.5,2.8,2.4,4.7,2.4c3.2,0,5.8-2.6,5.8-5.8S49.9,55.6,46.7,55.6z M46.7,65.7c-1.5,0-2.9-0.8-3.7-2c-0.1-0.2-0.4-0.4-0.6-0.4
				h-4.8v-3.1H42c0.3,0,0.6-0.2,0.7-0.5c0.7-1.7,2.2-2.7,4-2.7c2.4,0,4.3,1.9,4.3,4.3S49.1,65.7,46.7,65.7z"/>
		</g>
	</g>
</g>
</svg>
