<?xml version="1.0" encoding="utf-8"?>
<!-- Generator: Adobe Illustrator 23.0.3, SVG Export Plug-In . SVG Version: 6.00 Build 0)  -->
<svg version="1.1" id="Layer_1" xmlns="http://www.w3.org/2000/svg" xmlns:xlink="http://www.w3.org/1999/xlink" x="0px" y="0px"
	 viewBox="0 0 100 100" style="enable-background:new 0 0 100 100;" xml:space="preserve">
<style type="text/css">
	.st0{fill:#FFFFFF;}
</style>
<g>
	<g transform="translate(50 50) scale(0.69 0.69) rotate(0) translate(-50 -50)">
		<title>Hurricane</title>
		<path class="st0" d="M19.6,92.1c-0.9,1-2.5,1.2-3.5,0.3c0,0-0.1-0.1-0.1-0.1C-3.9,73.3-5.4,42.2,12.5,21.4
			C27.5,3.9,53.9,2,71.3,17c0,0,0,0,0,0C85.5,29.2,87,50.6,74.9,64.8c-9.3,10.7-25.2,12.7-36.8,4.5c-1.1-0.8-1.4-2.4-0.5-3.5
			c0-0.1,0.1-0.1,0.1-0.2l0,0c0.8-1,2.3-1.1,3.3-0.4c9.5,6.6,22.5,5,30.1-3.8c10.4-12.1,9-30.3-3-40.7C52.7,7.5,29.5,9.3,16.3,24.6
			c0,0,0,0,0,0c-16.2,18.8-14.8,46.9,3.1,64C20.4,89.6,20.4,91.1,19.6,92.1L19.6,92.1z"/>
		<path class="st0" d="M55.9,93.1c-10,0-19.6-3.6-27.2-10.1C14.6,70.8,13,49.4,25.2,35.3c9.3-10.7,25.2-12.7,36.8-4.5
			c1.1,0.8,1.4,2.4,0.5,3.5c0,0.1-0.1,0.1-0.1,0.2l0,0c-0.8,1-2.3,1.1-3.3,0.4c-9.5-6.6-22.5-5-30.1,3.8c-10.4,12.1-9.1,30.3,3,40.7
			c15.4,13.2,38.5,11.5,51.8-3.8c16.1-18.8,14.8-46.9-3.1-64c-1-0.9-1-2.4-0.2-3.4l0,0c0.9-1,2.5-1.2,3.5-0.3c0,0,0.1,0.1,0.1,0.1
			c19.8,19,21.3,50.1,3.5,70.9C79.6,87.8,68.1,93.1,55.9,93.1z"/>
		<circle class="st0" cx="50" cy="50" r="4.2"/>
	</g>
</g>
</svg>
