<?xml version="1.0" encoding="utf-8"?>
<!-- Generator: Adobe Illustrator 23.0.3, SVG Export Plug-In . SVG Version: 6.00 Build 0)  -->
<svg version="1.1"
	 id="Layer_1" xmlns:cc="http://creativecommons.org/ns#" xmlns:dc="http://purl.org/dc/elements/1.1/" xmlns:rdf="http://www.w3.org/1999/02/22-rdf-syntax-ns#" xmlns:svg="http://www.w3.org/2000/svg"
	 xmlns="http://www.w3.org/2000/svg" xmlns:xlink="http://www.w3.org/1999/xlink" x="0px" y="0px" viewBox="0 0 62 56.5"
	 style="enable-background:new 0 0 62 56.5;" xml:space="preserve">
<style type="text/css">
	.st0{fill:#FFFFFF;}
</style>
<path id="path12" class="st0" d="M54.4,11c-0.6-1-6.7-3.9-15.6-5.7c-3.6,4-3.6,5.6-3.7,6.2c-0.1,0.6,1.2,2.3,2.5,4
	c2.4,3.2,3.1,3.8,3.5,4.8c0.7,1.7-0.5,5.9-1.3,9.6c0-0.1-2.2-8.1-3.1-13.2c-0.1-0.5,0-0.7,0-0.7c-5.4-0.5-9.1-0.7-9.7,2.1
	c-2.5,0-3.7,0.7-4,1.2c-0.6,1.1,0.1,3.3,0.6,4.4c0.4-0.9,2.5-0.7,3.2-0.7c0.4,0.1,0.4,0.2,0.5,0.5v10.7h-6.5l-5.5,15.1
	c2.5,1.2,5.3,2.2,7,2.2c1.7,0,5.9-2.2,6.5-2.2c0.5,0,4.7,2.2,6.4,2.2s4.4-0.9,7-2.2l-5.5-15.1c0,0-5.7,0-6.5,0c0-2.4,0-7.8,0-10.3
	c-0.1-0.6-0.4-0.9-0.6-0.9l3.2-0.1c-0.5-1.8-1.1-3.2-2-3.3c0.2-0.4,0.5-0.6,0.8-0.9h-2.5c0.2-1.3,3.5-0.9,4.9-0.7
	c1.4,7.2,4.2,17,4.3,17.1s2.4,1,2.6,1.1c1.3-2.9,3.4-11.5,3.5-13.6c1.7,0.6,1.1,2.8,0.7,5.1c-1.9,11.7-3.5,15.3-3.8,17.5
	c1.7-0.4,2.6-0.7,2.9-0.9c0.2-0.4,1-2.3,1.7-4.5c1-3.2,2.5-11.2,2.5-14.4c0-0.7-0.7-1.6-1.8-2.1c0,0,0.6-1,0.8-1.7
	c0.4-0.7,0.7-2.2,0.7-2.2c0.7,0.2,1.2,0.5,1.3,1.2c0.4,3.1,0.2,3.3-0.2,9c0,1.7-0.7,5.4-1.3,9.2c-1.2,6.8-2.4,9.8-2.4,10.9
	c1.8-0.6,3.2-1.1,3.4-1.3c0.1-0.2,1.4-3.5,2.4-8.6c0.4-2.2,0.6-4.3,1-6.5c0.5-2.9,0.6-6,0.6-8.4c0-3.7,0.5-3.7-2.3-5.1
	c1.1-2.9,0.8-4.9,0.6-5.5c-0.5-1-1-1-3.4-0.9c0.8,0.9,0.6,2.4,0.4,3.4c-0.5-0.4-0.2-1.1-2.8-1c-0.4-4.2-1.2-4.6-1.2-4.8
	c-0.4-0.5-2.5-0.2-3.1,0c0.5,0.4,1.4,3.5,1,4.9c-0.2-0.4-3.8-4.5-3.6-5.3c0.2-0.5,0.5-1,1.7-2.4c4.2,0.9,11.3,3.5,11.8,4.3
	c0.4,1,0.8,2.1,1.1,3.7c0.4,2.4,1.1,8.1,0.7,16.7c-0.4,9-1.6,14-1.4,13.8c1.3-0.4,3.4-2.4,3.6-2.9c0.6-1.5,0.8-6.7,1-11.5
	c-0.1-4.7-0.6-10.7-0.8-13C55.5,13.7,55.1,12.2,54.4,11z M22.2,48.4c-1.3,0-3.2-0.2-3.2-0.2l3.2-9.5l3,9.5
	C25.2,48.1,23.4,48.4,22.2,48.4z M38.3,48.1c0,0-1.9,0.2-3.2,0.2c-1.1,0-3-0.2-3-0.2l3-9.5L38.3,48.1z M30,40.8v-3.7h2.8l-4.2,11.8
	l-4.2-11.7h2.8v2.6c0,0,0,0.2,0.1,0.2c0.4,0.2,0.5,0.2,0.5,0.2L30,40.8z M30.3,21.5h-4.8c-0.4-1.2,0-1.5,1.1-1.6
	C28.5,19.8,30.2,19.8,30.3,21.5z M44,16.3c1.7-0.2,1,2.9,0.5,4.2c-0.7-1.5-1.2-2.4-2.3-3.8C42.8,16.4,43.3,16.4,44,16.3z"/>
<path id="path14" class="st0" d="M12.7,42.7c0.8-1,3.8-4,4.3-5.7c0.5-2,1-6.8,1-7.9c0,0-3,2.1-4.5,3.7c-0.7,0.7-1.6,2-1.6,2
	c-0.4-1.7,0.1-3.7,0.8-4.8c1-1.7,4.6-4.8,5.1-6.1c0.8-2.1,0.7-3.9,1.3-6.1c-2.4,0.9-5.4,2.7-6.9,4.3c-0.1-2.4,0.6-4.2,2.2-5.4
	c2.3-1.8,5.4-2.8,7.3-3.4c1.7-0.5,4.5-1,5.8-1.7C30,10.4,32.4,6.8,33,5c-0.8,0-3.8-0.1-6.7,1c-1.1,0.5-1.6,1.5-2,2.3
	c-0.5,0.7-1,1.5-1.4,2.1c-1.2,1.8-2.6,2.7-4.4,3.2c0-0.1,1.2-0.9,2-2.7c0.7-1.6,1.6-4.6,1.6-4.9c-1.6,0.2-2.5,0.7-4.2,1.3
	c-1.7,0.7-2.3,1.5-2.6,2.2c-1.2,1.8-0.8,7-3.2,8.9c0.1-2.7,0.7-5.6-0.2-8.9c-4.8,2-5.8,3.7-5.4,5.7c0.5,2.8,3.5,4,4.8,6.4
	c0.5,0.7,0.6,1.7,0.6,1.7c0.1,0-1,1.3-0.6,4c0,0-1-2-1.9-3.2c-1.4-1.8-4.2-4.8-4.2-4.8c-0.6,7.5,0.4,9,0.7,9.6c1,1.6,4.4,4,5.2,5.6
	c0.4,0.7,0.5,1,0.5,1c0.1,0.2-0.7,1.2-0.6,2.6c0.1,0.5,0.2,1,0.4,1.7c0,0-1.1-1.6-2.5-3.2c-1.2-1.5-3.7-3.3-3.8-3.3
	c-0.1,0.9,0.4,5,0.5,5.7c0.2,2.1,0.4,4,2.2,5.9c1.4,1.5,6.3,3.5,7.3,3.9c0,0-0.2-1-0.7-2.3C13.5,45,12.7,42.7,12.7,42.7z"/>
</svg>
