<?xml version="1.0" encoding="utf-8"?>
<!-- Generator: Adobe Illustrator 23.0.3, SVG Export Plug-In . SVG Version: 6.00 Build 0)  -->
<svg version="1.1" id="Layer_1" xmlns="http://www.w3.org/2000/svg" xmlns:xlink="http://www.w3.org/1999/xlink" x="0px" y="0px"
	 viewBox="0 0 100 100" style="enable-background:new 0 0 100 100;" xml:space="preserve">
<style type="text/css">
	.st0{fill:#FFFFFF;}
</style>
<g>
	<g transform="translate(50 50) scale(0.69 0.69) rotate(0) translate(-50 -50)">
		<title>02</title>
		<path class="st0" d="M39.8,91.9c1.3,0.5,2.8,0,3.5-1.2l31.1-46.8c0.9-1.4,0.5-3.2-0.8-4.2c-0.6-0.4-1.3-0.6-2-0.5l-13.9,1.6
			L58.6,11c0.1-1.7-1.2-3.1-2.8-3.1c-1.1-0.1-2.2,0.5-2.8,1.5L25.4,55.6c-0.9,1.4-0.4,3.3,1,4.1c0.6,0.3,1.2,0.5,1.9,0.4l13.5-1.5
			l-4,30.1C37.7,90.1,38.5,91.4,39.8,91.9z M33.7,53.5l18.6-31.1l-0.6,21.8c-0.1,1.7,1.2,3,2.9,3.1c0.2,0,0.3,0,0.5,0L65.9,46
			L45.5,76.6l2.8-21.1c0.2-1.6-0.9-3.1-2.6-3.4c-0.1,0-0.3,0-0.4,0H45L33.7,53.5z"/>
	</g>
</g>
</svg>
