<?xml version="1.0" encoding="utf-8"?>
<!-- Generator: Adobe Illustrator 23.0.3, SVG Export Plug-In . SVG Version: 6.00 Build 0)  -->
<svg version="1.1" id="Layer_1" xmlns="http://www.w3.org/2000/svg" xmlns:xlink="http://www.w3.org/1999/xlink" x="0px" y="0px"
	 viewBox="0 0 1450 400" style="enable-background:new 0 0 1450 400;" xml:space="preserve">
<style type="text/css">
	.st0{fill-opacity:0;stroke:#666666;stroke-width:80;}
	.st1{clip-path:url(#SVGID_2_);fill-opacity:0;stroke:#666666;stroke-width:80;}
	.st2{fill-opacity:0;stroke:#666666;stroke-width:80;stroke-miterlimit:1;}
	.st3{clip-path:url(#SVGID_4_);fill-opacity:0;stroke:#666666;stroke-width:80;}
</style>
<path id="N" class="st0" d="M50,390V100c0-33.1,26.9-60,60-60c26,0,48.2,16.6,56.4,39.9l67.1,240.2C241.8,343.4,264,360,290,360
	c33.1,0,60-26.9,60-60V10"/>
<g>
	<defs>
		<rect id="SVGID_1_" width="1450" height="390"/>
	</defs>
	<clipPath id="SVGID_2_">
		<use xlink:href="#SVGID_1_"  style="overflow:visible;"/>
	</clipPath>
	<path id="A" class="st1" d="M405,415L513.6,79.9C521.8,56.6,544,40,570,40s48.2,16.6,56.4,39.9L735,415"/>
</g>
<path id="S" class="st2" d="M1040,50H844.9c-41.4,0-75,33.6-75,75s33.6,75,75.1,75h100c41.4,0,75,33.6,75,75c0,41.4-33.6,75-75,75
	l-205-0.1"/>
<g>
	<defs>
		<rect id="SVGID_3_" width="1450" height="390"/>
	</defs>
	<clipPath id="SVGID_4_">
		<use xlink:href="#SVGID_3_"  style="overflow:visible;"/>
	</clipPath>
	<path class="st3" d="M1066.2,415L1175,79.9c8.3-23.2,30.5-39.9,56.5-39.9c26.1,0,48.3,16.6,56.5,39.9L1396.8,415"/>
</g>
</svg>
