<?xml version="1.0" encoding="utf-8"?>
<!-- Generator: Adobe Illustrator 23.0.3, SVG Export Plug-In . SVG Version: 6.00 Build 0)  -->
<svg version="1.1" id="Layer_1" xmlns="http://www.w3.org/2000/svg" xmlns:xlink="http://www.w3.org/1999/xlink" x="0px" y="0px"
	 viewBox="0 0 100 100" style="enable-background:new 0 0 100 100;" xml:space="preserve">
<style type="text/css">
	.st0{fill:#FFFFFF;}
</style>
<g>
	<g transform="translate(50 50) scale(0.69 0.69) rotate(0) translate(-50 -50)">
		<g>
			<path class="st0" d="M49.3,12c-20.6,0-37.4,16.8-37.4,37.4c0,20.6,16.8,37.4,37.4,37.4c20.6,0,37.4-16.8,37.4-37.4
				C86.7,28.7,69.9,12,49.3,12z M49.3,82c-18,0-32.7-14.7-32.7-32.7s14.7-32.7,32.7-32.7S82,31.3,82,49.3S67.3,82,49.3,82z"/>
			<path class="st0" d="M49.3,30.1c-10.2,0-18.5,8.3-18.5,18.5s8.3,18.5,18.5,18.5c10.2,0,18.5-8.3,18.5-18.5S59.5,30.1,49.3,30.1z
				 M49.3,62.5c-7.6,0-13.9-6.2-13.9-13.9s6.2-13.9,13.9-13.9S63.2,41,63.2,48.6S56.9,62.5,49.3,62.5z"/>
			<path class="st0" d="M53.6,47.9c1-0.6,1.7-1.3,2-2.1c0.3-0.8,0.5-1.6,0.5-2.3c0-1.6-0.6-2.9-1.8-4c-1.2-1.1-2.8-1.7-5-1.7
				c-2.1,0-3.8,0.5-5,1.7c-1.2,1.1-1.8,2.4-1.8,4c0,0.7,0.2,1.5,0.5,2.3c0.3,0.8,1,1.6,2,2.2c-1,0.5-1.8,1.2-2.4,2.2
				c-0.5,1-0.8,2.1-0.8,3.3c0,1.8,0.6,3.3,1.9,4.6s3.1,1.9,5.5,1.9s4.3-0.6,5.6-1.9c1.3-1.3,2-2.8,2-4.6c0-1.2-0.3-2.3-0.8-3.3
				C55.5,49.3,54.7,48.5,53.6,47.9z M47.4,42c0.5-0.5,1.1-0.7,2-0.7c0.9,0,1.5,0.2,2,0.7c0.5,0.5,0.7,1.1,0.7,2
				c0,0.8-0.2,1.4-0.7,1.9c-0.5,0.5-1.1,0.7-2,0.7c-0.9,0-1.5-0.2-2-0.7c-0.5-0.5-0.7-1.1-0.7-1.9C46.7,43.2,46.9,42.5,47.4,42z
				 M51.7,55.7c-0.5,0.6-1.3,0.9-2.3,0.9c-1,0-1.7-0.3-2.3-0.9c-0.5-0.6-0.8-1.4-0.8-2.5c0-1.1,0.3-1.9,0.8-2.5s1.3-0.9,2.3-0.9
				c0.9,0,1.7,0.3,2.3,0.9s0.8,1.4,0.8,2.5C52.5,54.3,52.2,55.1,51.7,55.7z"/>
		</g>
	</g>
</g>
</svg>
