<?xml version="1.0" encoding="utf-8"?>
<!-- Generator: Adobe Illustrator 23.0.3, SVG Export Plug-In . SVG Version: 6.00 Build 0)  -->
<svg version="1.1" id="Layer_1" xmlns="http://www.w3.org/2000/svg" xmlns:xlink="http://www.w3.org/1999/xlink" x="0px" y="0px"
	 viewBox="0 0 100 100" style="enable-background:new 0 0 100 100;" xml:space="preserve">
<style type="text/css">
	.st0{fill:#FFFFFF;}
	.st1{display:none;}
	.st2{display:inline;}
</style>
<g>
	<g transform="translate(50 50) scale(0.69 0.69) rotate(0) translate(-50 -50)">
		<g>
			<g>
				<path class="st0" d="M49.5,44.4c-0.2-0.2-0.7-0.2-0.9,0l-2.5,2.5c-0.3,0.3-0.3,0.7,0,0.9l3.3,3.3c0.1,0.1,0.3,0.2,0.5,0.2
					s0.3-0.1,0.5-0.2l2.5-2.5c0.1-0.1,0.2-0.3,0.2-0.5c0-0.2-0.1-0.3-0.2-0.5L49.5,44.4z M49.8,49.7l-2.3-2.3l1.6-1.6l2.3,2.3
					L49.8,49.7z"/>
				<path class="st0" d="M95.5,13L87,4.5c-0.3-0.3-0.7-0.3-0.9,0L65.6,25.1l-0.6,0.6L54.4,36.2c-0.1,0.1-0.2,0.3-0.2,0.5
					s0.1,0.3,0.2,0.5l0.6,0.6l-1.4,7L49.8,41c-0.3-0.3-0.7-0.3-0.9,0L40.9,49c-0.1,0.1-0.2,0.3-0.2,0.5s0.1,0.3,0.2,0.5l3.7,3.8
					L37.8,55l-0.7-0.7c-0.3-0.3-0.7-0.3-0.9,0L4.5,86.1c-0.1,0.1-0.1,0.1-0.1,0.2c-0.1,0.2-0.1,0.3,0,0.5c0,0.1,0.1,0.2,0.1,0.2
					l8.5,8.5c0.1,0.1,0.1,0.1,0.2,0.1c0.1,0,0.2,0,0.2,0s0.2,0,0.2,0c0.1,0,0.2-0.1,0.2-0.1l10.6-10.6L35,74.3l10.6-10.6
					c0.1-0.1,0.1-0.1,0.1-0.2c0.1-0.2,0.1-0.3,0-0.5c0-0.1-0.1-0.2-0.1-0.2l-0.5-0.5l1.4-6.8l5.1,5.1c0.1,0.1,0.3,0.2,0.5,0.2
					s0.3-0.1,0.5-0.2l1.2-1.2l2,2c0.1,0.1,0.3,0.2,0.5,0.2c0.2,0,0.3-0.1,0.5-0.2l4.7-4.7c0.3-0.3,0.3-0.7,0-0.9l-2-2l1.2-1.2
					c0.1-0.1,0.2-0.3,0.2-0.5s-0.1-0.3-0.2-0.5l-5.1-5.1l7-1.4l0.5,0.5c0.1,0.1,0.3,0.2,0.5,0.2s0.3-0.1,0.5-0.2l31.7-31.7
					c0.1-0.1,0.2-0.3,0.2-0.5S95.6,13.1,95.5,13z M45.2,55.7L44.5,55l0.8-0.2L45.2,55.7z M44.6,58.4l-2.9-2.9l1.2-0.2l1.9,1.9
					L44.6,58.4z M44.2,63.3l-9.7,9.7l-7.5-7.5l9.7-9.7L44.2,63.3z M16.5,76l9.6-9.6l7.5,7.5L24,83.5L16.5,76z M5.9,86.5l9.6-9.6
					l7.5,7.5l-9.6,9.6L5.9,86.5z M38.9,56.1l1.3-0.3l4.1,4.1l-0.3,1.3L38.9,56.1z M56.2,60.1l-1.3-1.3l3.8-3.8l1.3,1.3L56.2,60.1z
					 M52.1,59.2L46.8,54c0-0.2-0.1-0.3-0.2-0.4s-0.3-0.2-0.4-0.2l-3.9-3.9l7-7l4.2,4.2c0,0,0,0,0,0c0,0,0,0,0.1,0l5.5,5.5L52.1,59.2
					z M94.1,13.5l-9.7,9.6l-7.5-7.5l9.6-9.7L94.1,13.5z M76,16.5l7.5,7.5l-9.7,9.7l-7.5-7.5l1.2-1.2L76,16.5z M55,44.5l0.7,0.7
					l-0.8,0.2L55,44.5z M55.3,43l0.2-1.2l2.9,2.9l-1.2,0.2L55.3,43z M60,44.3l-4.1-4.1l0.3-1.3l5.1,5.1L60,44.3z M55.8,36.7l9.7-9.7
					l7.5,7.5l-9.6,9.6L55.8,36.7z"/>
			</g>
		</g>
		<g class="st1">
			<g class="st2">
				<g>
					<g>
						<path class="st0" d="M50,60.6c-5.9,0-10.6-4.8-10.6-10.6c0-5.9,4.8-10.6,10.6-10.6S60.6,44.1,60.6,50
							C60.6,55.9,55.9,60.6,50,60.6z M50,40.6c-5.2,0-9.4,4.2-9.4,9.4c0,5.2,4.2,9.4,9.4,9.4s9.4-4.2,9.4-9.4
							C59.4,44.8,55.2,40.6,50,40.6z"/>
					</g>
				</g>
				<g>
					<path class="st0" d="M49.8,36.5c-1.6-1.6-1.6-4.1,0-5.6c0.5-0.5,0.8-1.2,0.8-2s-0.3-1.4-0.8-2l0.8-0.8c0.8,0.8,1.2,1.8,1.2,2.8
						s-0.4,2.1-1.2,2.8c-1.1,1.1-1.1,2.9,0,3.9L49.8,36.5z"/>
					<path class="st0" d="M49.3,73.9c-1.6-1.6-1.6-4.1,0-5.6c0.5-0.5,0.8-1.2,0.8-2c0-0.7-0.3-1.4-0.8-2l0.8-0.8
						c0.8,0.8,1.2,1.8,1.2,2.8c0,1.1-0.4,2.1-1.2,2.8c-1.1,1.1-1.1,2.9,0,3.9L49.3,73.9z"/>
				</g>
				<g>
					<path class="st0" d="M71.1,51.8c-1,0-2-0.4-2.8-1.2c-1-1-2.9-1-3.9,0l-0.8-0.8c0.8-0.8,1.8-1.2,2.8-1.2s2.1,0.4,2.8,1.2
						c1.1,1.1,2.9,1.1,3.9,0l0.8,0.8C73.1,51.5,72.1,51.8,71.1,51.8z"/>
					<path class="st0" d="M33.7,51.3c-1,0-2-0.4-2.8-1.2c-1-1-2.9-1-3.9,0l-0.9-0.8c0.8-0.8,1.8-1.2,2.8-1.2s2.1,0.4,2.8,1.2
						c1.1,1.1,2.9,1.1,3.9,0l0.8,0.8C35.7,51,34.7,51.3,33.7,51.3z"/>
				</g>
				<g>
					<path class="st0" d="M40.3,40.6c-2.2,0-4-1.8-4-4c0-1.5-1.3-2.8-2.8-2.8v-1.2c2.2,0,4,1.8,4,4c0,1.5,1.3,2.8,2.8,2.8V40.6z"/>
					<path class="st0" d="M66.4,67.4c-2.2,0-4-1.8-4-4c0-1.5-1.3-2.8-2.8-2.8v-1.2c2.2,0,4,1.8,4,4c0,1.5,1.3,2.8,2.8,2.8V67.4z"/>
				</g>
				<g>
					<path class="st0" d="M60.6,40.3h-1.2c0-2.2,1.8-4,4-4c1.5,0,2.8-1.2,2.8-2.8h1.2c0,2.2-1.8,4-4,4
						C61.9,37.5,60.6,38.8,60.6,40.3z"/>
					<path class="st0" d="M32.6,66.4c0-1.1,0.4-2.1,1.2-2.8s1.8-1.2,2.8-1.2c1.5,0,2.8-1.3,2.8-2.8l1.2,0c0,2.2-1.8,4-4,4
						c-0.7,0-1.4,0.3-2,0.8c-0.5,0.5-0.8,1.2-0.8,2L32.6,66.4z"/>
				</g>
			</g>
		</g>
	</g>
</g>
</svg>
