<?xml version="1.0" encoding="utf-8"?>
<!-- Generator: Adobe Illustrator 23.0.3, SVG Export Plug-In . SVG Version: 6.00 Build 0)  -->
<svg version="1.1" id="Layer_1" xmlns="http://www.w3.org/2000/svg" xmlns:xlink="http://www.w3.org/1999/xlink" x="0px" y="0px"
	 viewBox="0 0 100 100" style="enable-background:new 0 0 100 100;" xml:space="preserve">
<style type="text/css">
	.st0{fill:#666666;}
</style>
<g>
	<g transform="translate(50 50) scale(0.69 0.69) rotate(0) translate(-50 -50)">
		<g>
			<g>
				<g>
					<path class="st0" d="M60.5,61.7H39.1c-0.6,0-1.2-0.5-1.2-1.2V39.1c0-0.6,0.5-1.2,1.2-1.2h21.5c0.6,0,1.2,0.5,1.2,1.2v21.5
						C61.7,61.2,61.2,61.7,60.5,61.7z M40.2,59.4h19.1V40.2H40.2V59.4z"/>
				</g>
				<g>
					<path class="st0" d="M56.6,91H43c-0.6,0-1.2-0.5-1.2-1.2V72.3c0-0.6,0.5-1.2,1.2-1.2h13.7c0.6,0,1.2,0.5,1.2,1.2v17.6
						C57.8,90.5,57.3,91,56.6,91z M44.1,88.7h11.3V73.4H44.1V88.7z"/>
				</g>
				<g>
					<path class="st0" d="M52.7,73.4h-5.9c-0.6,0-1.2-0.5-1.2-1.2V48.8c0-0.6,0.5-1.2,1.2-1.2s1.2,0.5,1.2,1.2v22.3h3.5V48.8
						c0-0.6,0.5-1.2,1.2-1.2s1.2,0.5,1.2,1.2v23.4C53.9,72.9,53.4,73.4,52.7,73.4z"/>
				</g>
				<g>
					<path class="st0" d="M54.7,40.2h-9.8c-0.6,0-1.2-0.5-1.2-1.2v-9.3c0-0.4,0.2-0.8,0.6-1c0.4-0.2,0.8-0.2,1.2,0.1
						c1.3,0.8,2.7,1.3,4.2,1.3c1.5,0,3-0.4,4.2-1.3c0.4-0.2,0.8-0.3,1.2-0.1c0.4,0.2,0.6,0.6,0.6,1v9.3
						C55.9,39.7,55.3,40.2,54.7,40.2z M46.1,37.9h7.4v-6.2c-1.2,0.5-2.4,0.7-3.7,0.7s-2.5-0.2-3.7-0.7V37.9z"/>
				</g>
				<g>
					<path class="st0" d="M49.8,32.4c-2,0-3.9-0.6-5.5-1.7c-2.8-1.9-4.4-5-4.4-8.3c0-5.5,4.5-10,10-10c5.5,0,10,4.5,10,10
						c0,3.3-1.7,6.4-4.4,8.3C53.7,31.8,51.8,32.4,49.8,32.4z M49.8,14.8c-4.2,0-7.6,3.4-7.6,7.6c0,2.5,1.3,4.9,3.4,6.3
						c1.3,0.8,2.7,1.3,4.2,1.3c1.5,0,3-0.4,4.2-1.3c2.1-1.4,3.4-3.8,3.4-6.3C57.4,18.3,54,14.8,49.8,14.8z"/>
				</g>
				<g>
					<path class="st0" d="M49.8,24.6c-0.4,0-0.8-0.1-1.2-0.4c-0.6-0.4-1-1.1-1-1.8c0-1.2,1-2.1,2.1-2.1s2.1,1,2.1,2.1
						c0,0.7-0.4,1.4-1,1.8C50.6,24.5,50.2,24.6,49.8,24.6z M49.8,22.3c0,0-0.1,0-0.1,0c-0.1,0-0.1,0.1-0.1,0.2
						c0,0.1,0.1,0.2,0.2,0.2s0.2-0.1,0.2-0.2c0-0.1,0-0.1-0.1-0.2C49.9,22.3,49.8,22.3,49.8,22.3z"/>
				</g>
				<g>
					<path class="st0" d="M62.5,83.2H37.1c-0.6,0-1.2-0.5-1.2-1.2c0-0.6,0.5-1.2,1.2-1.2h25.4c0.6,0,1.2,0.5,1.2,1.2
						C63.7,82.7,63.1,83.2,62.5,83.2z"/>
				</g>
				<g>
					<path class="st0" d="M93.8,53.9H68.4c-0.6,0-1.2-0.5-1.2-1.2v-7.8c0-0.6,0.5-1.2,1.2-1.2h25.4c0.6,0,1.2,0.5,1.2,1.2v7.8
						C94.9,53.4,94.4,53.9,93.8,53.9z M69.5,51.6h23v-5.5h-23V51.6z"/>
				</g>
				<g>
					<path class="st0" d="M89.8,40.2H74.2c-0.6,0-1.2-0.5-1.2-1.2V7.8c0-0.6,0.5-1.2,1.2-1.2h15.6c0.6,0,1.2,0.5,1.2,1.2v31.2
						C91,39.7,90.5,40.2,89.8,40.2z M75.4,37.9h13.3V9H75.4V37.9z"/>
				</g>
				<g>
					<path class="st0" d="M68.4,46.1h-7.8c-0.6,0-1.2-0.5-1.2-1.2s0.5-1.2,1.2-1.2h7.8c0.6,0,1.2,0.5,1.2,1.2S69,46.1,68.4,46.1z"/>
				</g>
				<g>
					<path class="st0" d="M89.8,16.8H74.2c-0.6,0-1.2-0.5-1.2-1.2c0-0.6,0.5-1.2,1.2-1.2h15.6c0.6,0,1.2,0.5,1.2,1.2
						C91,16.3,90.5,16.8,89.8,16.8z"/>
				</g>
				<g>
					<path class="st0" d="M89.8,24.6H74.2c-0.6,0-1.2-0.5-1.2-1.2s0.5-1.2,1.2-1.2h15.6c0.6,0,1.2,0.5,1.2,1.2S90.5,24.6,89.8,24.6z
						"/>
				</g>
				<g>
					<path class="st0" d="M89.8,32.4H74.2c-0.6,0-1.2-0.5-1.2-1.2s0.5-1.2,1.2-1.2h15.6c0.6,0,1.2,0.5,1.2,1.2S90.5,32.4,89.8,32.4z
						"/>
				</g>
				<g>
					<path class="st0" d="M82,40.2c-0.6,0-1.2-0.5-1.2-1.2V7.8c0-0.6,0.5-1.2,1.2-1.2c0.6,0,1.2,0.5,1.2,1.2v31.2
						C83.2,39.7,82.7,40.2,82,40.2z"/>
				</g>
				<g>
					<path class="st0" d="M89.8,91H74.2c-0.6,0-1.2-0.5-1.2-1.2V58.6c0-0.6,0.5-1.2,1.2-1.2h15.6c0.6,0,1.2,0.5,1.2,1.2v31.2
						C91,90.5,90.5,91,89.8,91z M75.4,88.7h13.3V59.8H75.4V88.7z"/>
				</g>
				<g>
					<path class="st0" d="M89.8,67.6H74.2c-0.6,0-1.2-0.5-1.2-1.2c0-0.6,0.5-1.2,1.2-1.2h15.6c0.6,0,1.2,0.5,1.2,1.2
						C91,67.1,90.5,67.6,89.8,67.6z"/>
				</g>
				<g>
					<path class="st0" d="M89.8,75.4H74.2c-0.6,0-1.2-0.5-1.2-1.2c0-0.6,0.5-1.2,1.2-1.2h15.6c0.6,0,1.2,0.5,1.2,1.2
						C91,74.9,90.5,75.4,89.8,75.4z"/>
				</g>
				<g>
					<path class="st0" d="M89.8,83.2H74.2c-0.6,0-1.2-0.5-1.2-1.2c0-0.6,0.5-1.2,1.2-1.2h15.6c0.6,0,1.2,0.5,1.2,1.2
						C91,82.7,90.5,83.2,89.8,83.2z"/>
				</g>
				<g>
					<path class="st0" d="M82,91c-0.6,0-1.2-0.5-1.2-1.2V58.6c0-0.6,0.5-1.2,1.2-1.2c0.6,0,1.2,0.5,1.2,1.2v31.2
						C83.2,90.5,82.7,91,82,91z"/>
				</g>
				<g>
					<path class="st0" d="M31.2,53.9H5.9c-0.6,0-1.2-0.5-1.2-1.2v-7.8c0-0.6,0.5-1.2,1.2-1.2h25.4c0.6,0,1.2,0.5,1.2,1.2v7.8
						C32.4,53.4,31.9,53.9,31.2,53.9z M7,51.6h23v-5.5H7V51.6z"/>
				</g>
				<g>
					<path class="st0" d="M25.4,91H9.8c-0.6,0-1.2-0.5-1.2-1.2V58.6c0-0.6,0.5-1.2,1.2-1.2h15.6c0.6,0,1.2,0.5,1.2,1.2v31.2
						C26.6,90.5,26,91,25.4,91z M10.9,88.7h13.3V59.8H10.9V88.7z"/>
				</g>
				<g>
					<path class="st0" d="M39.1,46.1h-7.8c-0.6,0-1.2-0.5-1.2-1.2s0.5-1.2,1.2-1.2h7.8c0.6,0,1.2,0.5,1.2,1.2S39.7,46.1,39.1,46.1z"
						/>
				</g>
				<g>
					<path class="st0" d="M25.4,83.2H9.8c-0.6,0-1.2-0.5-1.2-1.2c0-0.6,0.5-1.2,1.2-1.2h15.6c0.6,0,1.2,0.5,1.2,1.2
						C26.6,82.7,26,83.2,25.4,83.2z"/>
				</g>
				<g>
					<path class="st0" d="M25.4,75.4H9.8c-0.6,0-1.2-0.5-1.2-1.2c0-0.6,0.5-1.2,1.2-1.2h15.6c0.6,0,1.2,0.5,1.2,1.2
						C26.6,74.9,26,75.4,25.4,75.4z"/>
				</g>
				<g>
					<path class="st0" d="M25.4,67.6H9.8c-0.6,0-1.2-0.5-1.2-1.2c0-0.6,0.5-1.2,1.2-1.2h15.6c0.6,0,1.2,0.5,1.2,1.2
						C26.6,67.1,26,67.6,25.4,67.6z"/>
				</g>
				<g>
					<path class="st0" d="M17.6,91c-0.6,0-1.2-0.5-1.2-1.2V58.6c0-0.6,0.5-1.2,1.2-1.2s1.2,0.5,1.2,1.2v31.2
						C18.8,90.5,18.2,91,17.6,91z"/>
				</g>
				<g>
					<path class="st0" d="M25.4,40.2H9.8c-0.6,0-1.2-0.5-1.2-1.2V7.8c0-0.6,0.5-1.2,1.2-1.2h15.6c0.6,0,1.2,0.5,1.2,1.2v31.2
						C26.6,39.7,26,40.2,25.4,40.2z M10.9,37.9h13.3V9H10.9V37.9z"/>
				</g>
				<g>
					<path class="st0" d="M25.4,32.4H9.8c-0.6,0-1.2-0.5-1.2-1.2s0.5-1.2,1.2-1.2h15.6c0.6,0,1.2,0.5,1.2,1.2S26,32.4,25.4,32.4z"/>
				</g>
				<g>
					<path class="st0" d="M25.4,24.6H9.8c-0.6,0-1.2-0.5-1.2-1.2s0.5-1.2,1.2-1.2h15.6c0.6,0,1.2,0.5,1.2,1.2S26,24.6,25.4,24.6z"/>
				</g>
				<g>
					<path class="st0" d="M25.4,16.8H9.8c-0.6,0-1.2-0.5-1.2-1.2c0-0.6,0.5-1.2,1.2-1.2h15.6c0.6,0,1.2,0.5,1.2,1.2
						C26.6,16.3,26,16.8,25.4,16.8z"/>
				</g>
				<g>
					<path class="st0" d="M17.6,40.2c-0.6,0-1.2-0.5-1.2-1.2V7.8c0-0.6,0.5-1.2,1.2-1.2s1.2,0.5,1.2,1.2v31.2
						C18.8,39.7,18.2,40.2,17.6,40.2z"/>
				</g>
				<g>
					<path class="st0" d="M60.5,53.9H39.1c-0.6,0-1.2-0.5-1.2-1.2s0.5-1.2,1.2-1.2h21.5c0.6,0,1.2,0.5,1.2,1.2S61.2,53.9,60.5,53.9z
						"/>
				</g>
				<g>
					<path class="st0" d="M82,59.8c-0.6,0-1.2-0.5-1.2-1.2v-5.9c0-0.6,0.5-1.2,1.2-1.2c0.6,0,1.2,0.5,1.2,1.2v5.9
						C83.2,59.2,82.7,59.8,82,59.8z"/>
				</g>
				<g>
					<path class="st0" d="M82,46.1c-0.6,0-1.2-0.5-1.2-1.2v-5.9c0-0.6,0.5-1.2,1.2-1.2c0.6,0,1.2,0.5,1.2,1.2v5.9
						C83.2,45.6,82.7,46.1,82,46.1z"/>
				</g>
				<g>
					<path class="st0" d="M17.6,46.1c-0.6,0-1.2-0.5-1.2-1.2v-5.9c0-0.6,0.5-1.2,1.2-1.2s1.2,0.5,1.2,1.2v5.9
						C18.8,45.6,18.2,46.1,17.6,46.1z"/>
				</g>
				<g>
					<path class="st0" d="M17.6,59.8c-0.6,0-1.2-0.5-1.2-1.2v-5.9c0-0.6,0.5-1.2,1.2-1.2s1.2,0.5,1.2,1.2v5.9
						C18.8,59.2,18.2,59.8,17.6,59.8z"/>
				</g>
			</g>
		</g>
	</g>
</g>
</svg>
