<?xml version="1.0" encoding="utf-8"?>
<!-- Generator: Adobe Illustrator 23.0.3, SVG Export Plug-In . SVG Version: 6.00 Build 0)  -->
<svg version="1.1" id="Layer_1" xmlns="http://www.w3.org/2000/svg" xmlns:xlink="http://www.w3.org/1999/xlink" x="0px" y="0px"
	 viewBox="0 0 100 100" style="enable-background:new 0 0 100 100;" xml:space="preserve">
<style type="text/css">
	.st0{fill:#666666;}
</style>
<g>
	<g transform="translate(50 50) scale(0.69 0.69) rotate(0) translate(-50 -50)">
		<title>sputnik, satellite, space, galaxy, astronomy, science</title>
		<path class="st0" d="M90,44c9.4-9.4,9.4-24.6,0-34s-24.6-9.4-34,0c-0.2,0.2-0.5,0.5-0.7,0.8L4.1,38.2c-0.9,0.6-1.2,1.8-0.6,2.8
			C4,41.8,5,42.2,5.9,41.8l44.9-24c-3.5,8.3-2,17.9,3.8,24.8L16.6,80.6c-0.8,0.7-0.9,2-0.2,2.8s2,0.9,2.8,0.2
			c0.1-0.1,0.2-0.1,0.2-0.2l38.1-38.1c6.9,5.8,16.4,7.3,24.8,3.8l-24,44.9c-0.6,0.9-0.3,2.2,0.6,2.8s2.2,0.3,2.8-0.6
			c0-0.1,0.1-0.2,0.1-0.2l27.4-51.3C89.5,44.4,89.7,44.2,90,44z M87.1,12.9c7.6,7.6,7.8,19.9,0.4,27.8L59.3,12.4
			C67.2,5,79.5,5.2,87.1,12.9z M82.5,44.6C82.5,44.6,82.4,44.5,82.5,44.6L70.4,32.5l1.7-1.7l12.5,12.5
			C83.9,43.8,83.2,44.2,82.5,44.6z M56.7,15.4L69.2,28l-1.7,1.7L55.4,17.5C55.8,16.8,56.2,16.1,56.7,15.4z M53.8,21.5l10.9,10.9
			l-7.2,7.2C53.4,34.6,52,27.8,53.8,21.5z M60.3,42.5l7.2-7.2l10.9,10.9C72.2,48,65.4,46.6,60.3,42.5L60.3,42.5z M80.6,16
			c0.9,0.6,2.2,0.3,2.7-0.7c0.6-0.9,0.3-2.2-0.7-2.7l0,0l-0.1-0.1c-0.9-0.5-2.1-0.2-2.7,0.7C79.3,14.2,79.6,15.4,80.6,16
			C80.6,16,80.6,16,80.6,16z M65,13.8c0.3,0.8,1,1.3,1.9,1.3c0.2,0,0.5,0,0.7-0.1c2.5-1,5.3-1.2,8-0.8c1.1,0.2,2.1-0.5,2.3-1.6
			s-0.5-2.1-1.6-2.3c-3.4-0.6-6.9-0.2-10.1,1C65.1,11.6,64.6,12.8,65,13.8z M36,36c-1.1,0-2,0.9-2,2v1h-1c-1.1,0-2,0.9-2,2
			s0.9,2,2,2h1v1c0,1.1,0.9,2,2,2s2-0.9,2-2v-1h1c1.1,0,2-0.9,2-2s-0.9-2-2-2h-1v-1C38,36.9,37.1,36,36,36z M12,52h-1v-1
			c0-1.1-0.9-2-2-2s-2,0.9-2,2v1H6c-1.1,0-2,0.9-2,2s0.9,2,2,2h1v1c0,1.1,0.9,2,2,2s2-0.9,2-2v-1h1c1.1,0,2-0.9,2-2S13.1,52,12,52z
			 M33,90h-1v-1c0-1.1-0.9-2-2-2s-2,0.9-2,2v1h-1c-1.1,0-2,0.9-2,2s0.9,2,2,2h1v1c0,1.1,0.9,2,2,2s2-0.9,2-2v-1h1c1.1,0,2-0.9,2-2
			S34.1,90,33,90z M59,74c1.1,0,2-0.9,2-2s-0.9-2-2-2h-1v-1c0-1.1-0.9-2-2-2s-2,0.9-2,2v1h-1c-1.1,0-2,0.9-2,2s0.9,2,2,2h1v1
			c0,1.1,0.9,2,2,2s2-0.9,2-2v-1H59z M89,90h-1v-1c0-1.1-0.9-2-2-2s-2,0.9-2,2v1h-1c-1.1,0-2,0.9-2,2s0.9,2,2,2h1v1c0,1.1,0.9,2,2,2
			s2-0.9,2-2v-1h1c1.1,0,2-0.9,2-2S90.1,90,89,90z M23,14h1v1c0,1.1,0.9,2,2,2s2-0.9,2-2v-1h1c1.1,0,2-0.9,2-2s-0.9-2-2-2h-1V9
			c0-1.1-0.9-2-2-2s-2,0.9-2,2v1h-1c-1.1,0-2,0.9-2,2S21.9,14,23,14z"/>
	</g>
</g>
</svg>
